<svg xmlns="http://www.w3.org/2000/svg" viewBox="0 0 9 9" shape-rendering="crispEdges">
  <g transform="translate(1 0.5)">
    <g fill="#CA8A04">
      <rect x="1" y="0" width="1" height="1"/>
      <rect x="5" y="0" width="1" height="1"/>
      <rect x="0" y="1" width="7" height="1"/>
      <rect x="0" y="2" width="1" height="1"/>
      <rect x="3" y="2" width="1" height="1"/>
      <rect x="6" y="2" width="1" height="1"/>
      <rect x="0" y="3" width="3" height="1"/>
      <rect x="4" y="3" width="3" height="1"/>
      <rect x="0" y="4" width="1" height="1"/>
      <rect x="2" y="4" width="3" height="1"/>
      <rect x="6" y="4" width="1" height="1"/>
      <rect x="0" y="5" width="7" height="1"/>
      <rect x="1" y="6" width="5" height="1"/>
      <rect x="1" y="7" width="1" height="1"/>
      <rect x="3" y="7" width="1" height="1"/>
      <rect x="5" y="7" width="1" height="1"/>
    </g>
    <g fill="#FEF3C7">
      <rect x="1" y="2" width="1" height="1"/>
      <rect x="5" y="2" width="1" height="1"/>
      <rect x="1" y="4" width="1" height="1"/>
      <rect x="5" y="4" width="1" height="1"/>
    </g>
    <g fill="#111827">
      <rect x="2" y="2" width="1" height="1"/>
      <rect x="4" y="2" width="1" height="1"/>
    </g>
    <g fill="#F97316">
      <rect x="3" y="3" width="1" height="1"/>
    </g>
  </g>
</svg>
