<svg xmlns="http://www.w3.org/2000/svg" viewBox="0 0 9 10" shape-rendering="crispEdges" role="img" aria-label="5번. 탐구자 — 호기심 개구리">
  <title>5번. 탐구자 — 호기심 개구리</title>
  <rect width="9" height="10" fill="#151B24"/>
  <g fill="#22C55E"><rect x="2" y="1" width="1" height="1"/><rect x="3" y="1" width="1" height="1"/><rect x="4" y="1" width="1" height="1"/><rect x="5" y="1" width="1" height="1"/><rect x="6" y="1" width="1" height="1"/><rect x="1" y="2" width="1" height="1"/><rect x="7" y="2" width="1" height="1"/><rect x="1" y="3" width="1" height="1"/><rect x="2" y="3" width="1" height="1"/><rect x="3" y="3" width="1" height="1"/><rect x="4" y="3" width="1" height="1"/><rect x="5" y="3" width="1" height="1"/><rect x="6" y="3" width="1" height="1"/><rect x="7" y="3" width="1" height="1"/><rect x="1" y="4" width="1" height="1"/><rect x="2" y="4" width="1" height="1"/><rect x="6" y="4" width="1" height="1"/><rect x="7" y="4" width="1" height="1"/><rect x="1" y="5" width="1" height="1"/><rect x="2" y="5" width="1" height="1"/><rect x="3" y="5" width="1" height="1"/><rect x="4" y="5" width="1" height="1"/><rect x="5" y="5" width="1" height="1"/><rect x="6" y="5" width="1" height="1"/><rect x="7" y="5" width="1" height="1"/><rect x="2" y="6" width="1" height="1"/><rect x="3" y="6" width="1" height="1"/><rect x="4" y="6" width="1" height="1"/><rect x="5" y="6" width="1" height="1"/><rect x="6" y="6" width="1" height="1"/><rect x="1" y="7" width="1" height="1"/><rect x="3" y="7" width="1" height="1"/><rect x="5" y="7" width="1" height="1"/><rect x="7" y="7" width="1" height="1"/><rect x="1" y="8" width="1" height="1"/><rect x="7" y="8" width="1" height="1"/></g>
  <g fill="#FFFFFF"><rect x="2" y="2" width="1" height="1"/><rect x="4" y="2" width="1" height="1"/><rect x="6" y="2" width="1" height="1"/></g>
  <g fill="#0F172A"><rect x="3" y="2" width="1" height="1"/><rect x="5" y="2" width="1" height="1"/><rect x="4" y="4" width="1" height="1"/></g>
</svg>
