<svg xmlns="http://www.w3.org/2000/svg" viewBox="0 0 9 10" shape-rendering="crispEdges" role="img" aria-label="4번. 예술가 — 신비한 고양이">
  <title>4번. 예술가 — 신비한 고양이</title>
  <rect width="9" height="10" fill="#151B24"/>
  <g fill="#A78BFA"><rect x="2" y="1" width="1" height="1"/><rect x="6" y="1" width="1" height="1"/><rect x="1" y="2" width="1" height="1"/><rect x="2" y="2" width="1" height="1"/><rect x="3" y="2" width="1" height="1"/><rect x="5" y="2" width="1" height="1"/><rect x="6" y="2" width="1" height="1"/><rect x="7" y="2" width="1" height="1"/><rect x="1" y="3" width="1" height="1"/><rect x="2" y="3" width="1" height="1"/><rect x="3" y="3" width="1" height="1"/><rect x="4" y="3" width="1" height="1"/><rect x="5" y="3" width="1" height="1"/><rect x="6" y="3" width="1" height="1"/><rect x="7" y="3" width="1" height="1"/><rect x="1" y="4" width="1" height="1"/><rect x="3" y="4" width="1" height="1"/><rect x="4" y="4" width="1" height="1"/><rect x="5" y="4" width="1" height="1"/><rect x="7" y="4" width="1" height="1"/><rect x="1" y="5" width="1" height="1"/><rect x="2" y="5" width="1" height="1"/><rect x="3" y="5" width="1" height="1"/><rect x="5" y="5" width="1" height="1"/><rect x="6" y="5" width="1" height="1"/><rect x="1" y="6" width="1" height="1"/><rect x="3" y="6" width="1" height="1"/><rect x="4" y="6" width="1" height="1"/><rect x="5" y="6" width="1" height="1"/><rect x="7" y="6" width="1" height="1"/><rect x="2" y="7" width="1" height="1"/><rect x="3" y="7" width="1" height="1"/><rect x="4" y="7" width="1" height="1"/><rect x="5" y="7" width="1" height="1"/><rect x="6" y="7" width="1" height="1"/><rect x="1" y="8" width="1" height="1"/><rect x="3" y="8" width="1" height="1"/><rect x="5" y="8" width="1" height="1"/><rect x="7" y="8" width="1" height="1"/></g>
  <g fill="#1F2937"><rect x="2" y="4" width="1" height="1"/><rect x="6" y="4" width="1" height="1"/></g>
  <g fill="#EC4899"><rect x="4" y="5" width="1" height="1"/></g>
  <g fill="#E9D5FF"><rect x="2" y="6" width="1" height="1"/><rect x="6" y="6" width="1" height="1"/></g>
</svg>
