<svg xmlns="http://www.w3.org/2000/svg" viewBox="0 0 920 920" role="img" aria-label="애니어그램 9유형 원형 그래프 · Aniagram 9 Types">
  <title>애니어그램 9유형 원형 그래프 · Aniagram 9 Types</title>
  <rect width="920" height="920" fill="#0B0F14"/>
  <circle cx="460" cy="460" r="360" fill="none" stroke="#242D3A" stroke-width="1"/>
  <circle cx="460" cy="460" r="188" fill="none" stroke="#2A3A55" stroke-width="1.5"/>
  <polygon points="580.8,316.0 524.3,636.7 645.1,427.4 339.2,316.0 395.7,636.7 274.9,427.4" fill="none" stroke="#3182F6" stroke-width="2" stroke-linejoin="round" opacity="0.75"/>
  <polygon points="460.0,272.0 622.8,554.0 297.2,554.0" fill="none" stroke="#3182F6" stroke-width="2" stroke-linejoin="round" opacity="0.9"/>
  <text x="460" y="458" text-anchor="middle" fill="#3182F6" font-family="ui-monospace,Menlo,monospace" font-size="22" letter-spacing="4" font-weight="800">ANIAGRAM</text>
  <text x="460" y="480" text-anchor="middle" fill="#8B95A3" font-family="ui-monospace,Menlo,monospace" font-size="11" letter-spacing="3">9 TYPES</text>
  
  <g>
    <circle cx="580.8" cy="316.0" r="28" fill="#FACC15" stroke="#0B0F14" stroke-width="3"/>
    <text x="580.8" y="322.0" text-anchor="middle" fill="#FFFFFF" font-family="system-ui,-apple-system,sans-serif" font-size="20" font-weight="800">1</text>
  </g>
  
  <g>
    <rect x="598.4" y="148.2" width="186" height="72" rx="36" fill="#151B24" stroke="#FACC15" stroke-width="1.5"/>
    <g shape-rendering="crispEdges" transform="translate(611.4,160.2)"><g fill="#CA8A04"><rect x="6" y="0" width="6" height="6"/><rect x="30" y="0" width="6" height="6"/><rect x="0" y="6" width="6" height="6"/><rect x="6" y="6" width="6" height="6"/><rect x="12" y="6" width="6" height="6"/><rect x="18" y="6" width="6" height="6"/><rect x="24" y="6" width="6" height="6"/><rect x="30" y="6" width="6" height="6"/><rect x="36" y="6" width="6" height="6"/><rect x="0" y="12" width="6" height="6"/><rect x="18" y="12" width="6" height="6"/><rect x="36" y="12" width="6" height="6"/><rect x="0" y="18" width="6" height="6"/><rect x="6" y="18" width="6" height="6"/><rect x="12" y="18" width="6" height="6"/><rect x="24" y="18" width="6" height="6"/><rect x="30" y="18" width="6" height="6"/><rect x="36" y="18" width="6" height="6"/><rect x="0" y="24" width="6" height="6"/><rect x="12" y="24" width="6" height="6"/><rect x="18" y="24" width="6" height="6"/><rect x="24" y="24" width="6" height="6"/><rect x="36" y="24" width="6" height="6"/><rect x="0" y="30" width="6" height="6"/><rect x="6" y="30" width="6" height="6"/><rect x="12" y="30" width="6" height="6"/><rect x="18" y="30" width="6" height="6"/><rect x="24" y="30" width="6" height="6"/><rect x="30" y="30" width="6" height="6"/><rect x="36" y="30" width="6" height="6"/><rect x="6" y="36" width="6" height="6"/><rect x="12" y="36" width="6" height="6"/><rect x="18" y="36" width="6" height="6"/><rect x="24" y="36" width="6" height="6"/><rect x="30" y="36" width="6" height="6"/><rect x="6" y="42" width="6" height="6"/><rect x="18" y="42" width="6" height="6"/><rect x="30" y="42" width="6" height="6"/></g><g fill="#FEF3C7"><rect x="6" y="12" width="6" height="6"/><rect x="30" y="12" width="6" height="6"/><rect x="6" y="24" width="6" height="6"/><rect x="30" y="24" width="6" height="6"/></g><g fill="#111827"><rect x="12" y="12" width="6" height="6"/><rect x="24" y="12" width="6" height="6"/></g><g fill="#F97316"><rect x="18" y="18" width="6" height="6"/></g></g>
    <text x="664.4" y="180.2" fill="#E6EBF2" font-family="system-ui,-apple-system,'Apple SD Gothic Neo','Noto Sans KR',sans-serif" font-size="15" font-weight="700">1번 · 개혁가</text>
    <text x="664.4" y="200.2" fill="#8B95A3" font-family="system-ui,-apple-system,'Apple SD Gothic Neo','Noto Sans KR',sans-serif" font-size="11">황금 올빼미</text>
  </g>
  
  <g>
    <circle cx="645.1" cy="427.4" r="28" fill="#EC4899" stroke="#0B0F14" stroke-width="3"/>
    <text x="645.1" y="433.4" text-anchor="middle" fill="#FFFFFF" font-family="system-ui,-apple-system,sans-serif" font-size="20" font-weight="800">2</text>
  </g>
  
  <g>
    <rect x="721.5" y="361.5" width="186" height="72" rx="36" fill="#151B24" stroke="#EC4899" stroke-width="1.5"/>
    <g shape-rendering="crispEdges" transform="translate(734.5,373.5)"><g fill="#F3F4F6"><rect x="0" y="0" width="6" height="6"/><rect x="36" y="0" width="6" height="6"/><rect x="0" y="6" width="6" height="6"/><rect x="36" y="6" width="6" height="6"/><rect x="0" y="12" width="6" height="6"/><rect x="6" y="12" width="6" height="6"/><rect x="30" y="12" width="6" height="6"/><rect x="36" y="12" width="6" height="6"/><rect x="0" y="18" width="6" height="6"/><rect x="6" y="18" width="6" height="6"/><rect x="12" y="18" width="6" height="6"/><rect x="18" y="18" width="6" height="6"/><rect x="24" y="18" width="6" height="6"/><rect x="30" y="18" width="6" height="6"/><rect x="36" y="18" width="6" height="6"/><rect x="0" y="24" width="6" height="6"/><rect x="12" y="24" width="6" height="6"/><rect x="18" y="24" width="6" height="6"/><rect x="24" y="24" width="6" height="6"/><rect x="36" y="24" width="6" height="6"/><rect x="0" y="30" width="6" height="6"/><rect x="6" y="30" width="6" height="6"/><rect x="12" y="30" width="6" height="6"/><rect x="24" y="30" width="6" height="6"/><rect x="30" y="30" width="6" height="6"/><rect x="36" y="30" width="6" height="6"/><rect x="6" y="36" width="6" height="6"/><rect x="12" y="36" width="6" height="6"/><rect x="18" y="36" width="6" height="6"/><rect x="24" y="36" width="6" height="6"/><rect x="30" y="36" width="6" height="6"/><rect x="6" y="42" width="6" height="6"/><rect x="30" y="42" width="6" height="6"/></g><g fill="#111827"><rect x="6" y="24" width="6" height="6"/><rect x="30" y="24" width="6" height="6"/></g><g fill="#F472B6"><rect x="18" y="30" width="6" height="6"/></g></g>
    <text x="787.5" y="393.5" fill="#E6EBF2" font-family="system-ui,-apple-system,'Apple SD Gothic Neo','Noto Sans KR',sans-serif" font-size="15" font-weight="700">2번 · 조력자</text>
    <text x="787.5" y="413.5" fill="#8B95A3" font-family="system-ui,-apple-system,'Apple SD Gothic Neo','Noto Sans KR',sans-serif" font-size="11">포근한 토끼</text>
  </g>
  
  <g>
    <circle cx="622.8" cy="554.0" r="28" fill="#FB923C" stroke="#0B0F14" stroke-width="3"/>
    <text x="622.8" y="560.0" text-anchor="middle" fill="#FFFFFF" font-family="system-ui,-apple-system,sans-serif" font-size="20" font-weight="800">3</text>
  </g>
  
  <g>
    <rect x="678.8" y="604.0" width="186" height="72" rx="36" fill="#151B24" stroke="#FB923C" stroke-width="1.5"/>
    <g shape-rendering="crispEdges" transform="translate(691.8,616.0)"><g fill="#F97316"><rect x="0" y="0" width="6" height="6"/><rect x="36" y="0" width="6" height="6"/><rect x="0" y="6" width="6" height="6"/><rect x="6" y="6" width="6" height="6"/><rect x="30" y="6" width="6" height="6"/><rect x="36" y="6" width="6" height="6"/><rect x="0" y="12" width="6" height="6"/><rect x="6" y="12" width="6" height="6"/><rect x="12" y="12" width="6" height="6"/><rect x="24" y="12" width="6" height="6"/><rect x="30" y="12" width="6" height="6"/><rect x="36" y="12" width="6" height="6"/><rect x="0" y="18" width="6" height="6"/><rect x="12" y="18" width="6" height="6"/><rect x="24" y="18" width="6" height="6"/><rect x="36" y="18" width="6" height="6"/><rect x="0" y="24" width="6" height="6"/><rect x="6" y="24" width="6" height="6"/><rect x="12" y="24" width="6" height="6"/><rect x="24" y="24" width="6" height="6"/><rect x="30" y="24" width="6" height="6"/><rect x="36" y="24" width="6" height="6"/><rect x="6" y="30" width="6" height="6"/><rect x="12" y="30" width="6" height="6"/><rect x="18" y="30" width="6" height="6"/><rect x="24" y="30" width="6" height="6"/><rect x="30" y="30" width="6" height="6"/><rect x="6" y="36" width="6" height="6"/><rect x="12" y="36" width="6" height="6"/><rect x="18" y="36" width="6" height="6"/><rect x="24" y="36" width="6" height="6"/><rect x="30" y="36" width="6" height="6"/><rect x="0" y="42" width="6" height="6"/><rect x="36" y="42" width="6" height="6"/></g><g fill="#FFFFFF"><rect x="18" y="12" width="6" height="6"/><rect x="18" y="18" width="6" height="6"/><rect x="0" y="30" width="6" height="6"/><rect x="36" y="30" width="6" height="6"/></g><g fill="#111827"><rect x="6" y="18" width="6" height="6"/><rect x="30" y="18" width="6" height="6"/></g><g fill="#1F2937"><rect x="18" y="24" width="6" height="6"/></g></g>
    <text x="744.8" y="636.0" fill="#E6EBF2" font-family="system-ui,-apple-system,'Apple SD Gothic Neo','Noto Sans KR',sans-serif" font-size="15" font-weight="700">3번 · 성취자</text>
    <text x="744.8" y="656.0" fill="#8B95A3" font-family="system-ui,-apple-system,'Apple SD Gothic Neo','Noto Sans KR',sans-serif" font-size="11">영리한 여우</text>
  </g>
  
  <g>
    <circle cx="524.3" cy="636.7" r="28" fill="#A78BFA" stroke="#0B0F14" stroke-width="3"/>
    <text x="524.3" y="642.7" text-anchor="middle" fill="#FFFFFF" font-family="system-ui,-apple-system,sans-serif" font-size="20" font-weight="800">4</text>
  </g>
  
  <g>
    <rect x="490.1" y="762.3" width="186" height="72" rx="36" fill="#151B24" stroke="#A78BFA" stroke-width="1.5"/>
    <g shape-rendering="crispEdges" transform="translate(503.1,774.3)"><g fill="#A78BFA"><rect x="6" y="0" width="6" height="6"/><rect x="30" y="0" width="6" height="6"/><rect x="0" y="6" width="6" height="6"/><rect x="6" y="6" width="6" height="6"/><rect x="12" y="6" width="6" height="6"/><rect x="24" y="6" width="6" height="6"/><rect x="30" y="6" width="6" height="6"/><rect x="36" y="6" width="6" height="6"/><rect x="0" y="12" width="6" height="6"/><rect x="6" y="12" width="6" height="6"/><rect x="12" y="12" width="6" height="6"/><rect x="18" y="12" width="6" height="6"/><rect x="24" y="12" width="6" height="6"/><rect x="30" y="12" width="6" height="6"/><rect x="36" y="12" width="6" height="6"/><rect x="0" y="18" width="6" height="6"/><rect x="12" y="18" width="6" height="6"/><rect x="18" y="18" width="6" height="6"/><rect x="24" y="18" width="6" height="6"/><rect x="36" y="18" width="6" height="6"/><rect x="0" y="24" width="6" height="6"/><rect x="6" y="24" width="6" height="6"/><rect x="12" y="24" width="6" height="6"/><rect x="24" y="24" width="6" height="6"/><rect x="30" y="24" width="6" height="6"/><rect x="0" y="30" width="6" height="6"/><rect x="12" y="30" width="6" height="6"/><rect x="18" y="30" width="6" height="6"/><rect x="24" y="30" width="6" height="6"/><rect x="36" y="30" width="6" height="6"/><rect x="6" y="36" width="6" height="6"/><rect x="12" y="36" width="6" height="6"/><rect x="18" y="36" width="6" height="6"/><rect x="24" y="36" width="6" height="6"/><rect x="30" y="36" width="6" height="6"/><rect x="0" y="42" width="6" height="6"/><rect x="12" y="42" width="6" height="6"/><rect x="24" y="42" width="6" height="6"/><rect x="36" y="42" width="6" height="6"/></g><g fill="#1F2937"><rect x="6" y="18" width="6" height="6"/><rect x="30" y="18" width="6" height="6"/></g><g fill="#EC4899"><rect x="18" y="24" width="6" height="6"/></g><g fill="#E9D5FF"><rect x="6" y="30" width="6" height="6"/><rect x="30" y="30" width="6" height="6"/></g></g>
    <text x="556.1" y="794.3" fill="#E6EBF2" font-family="system-ui,-apple-system,'Apple SD Gothic Neo','Noto Sans KR',sans-serif" font-size="15" font-weight="700">4번 · 예술가</text>
    <text x="556.1" y="814.3" fill="#8B95A3" font-family="system-ui,-apple-system,'Apple SD Gothic Neo','Noto Sans KR',sans-serif" font-size="11">신비한 고양이</text>
  </g>
  
  <g>
    <circle cx="395.7" cy="636.7" r="28" fill="#38BDF8" stroke="#0B0F14" stroke-width="3"/>
    <text x="395.7" y="642.7" text-anchor="middle" fill="#FFFFFF" font-family="system-ui,-apple-system,sans-serif" font-size="20" font-weight="800">5</text>
  </g>
  
  <g>
    <rect x="243.9" y="762.3" width="186" height="72" rx="36" fill="#151B24" stroke="#38BDF8" stroke-width="1.5"/>
    <g shape-rendering="crispEdges" transform="translate(256.9,774.3)"><g fill="#22C55E"><rect x="6" y="0" width="6" height="6"/><rect x="12" y="0" width="6" height="6"/><rect x="18" y="0" width="6" height="6"/><rect x="24" y="0" width="6" height="6"/><rect x="30" y="0" width="6" height="6"/><rect x="0" y="6" width="6" height="6"/><rect x="36" y="6" width="6" height="6"/><rect x="0" y="12" width="6" height="6"/><rect x="6" y="12" width="6" height="6"/><rect x="12" y="12" width="6" height="6"/><rect x="18" y="12" width="6" height="6"/><rect x="24" y="12" width="6" height="6"/><rect x="30" y="12" width="6" height="6"/><rect x="36" y="12" width="6" height="6"/><rect x="0" y="18" width="6" height="6"/><rect x="6" y="18" width="6" height="6"/><rect x="30" y="18" width="6" height="6"/><rect x="36" y="18" width="6" height="6"/><rect x="0" y="24" width="6" height="6"/><rect x="6" y="24" width="6" height="6"/><rect x="12" y="24" width="6" height="6"/><rect x="18" y="24" width="6" height="6"/><rect x="24" y="24" width="6" height="6"/><rect x="30" y="24" width="6" height="6"/><rect x="36" y="24" width="6" height="6"/><rect x="6" y="30" width="6" height="6"/><rect x="12" y="30" width="6" height="6"/><rect x="18" y="30" width="6" height="6"/><rect x="24" y="30" width="6" height="6"/><rect x="30" y="30" width="6" height="6"/><rect x="0" y="36" width="6" height="6"/><rect x="12" y="36" width="6" height="6"/><rect x="24" y="36" width="6" height="6"/><rect x="36" y="36" width="6" height="6"/><rect x="0" y="42" width="6" height="6"/><rect x="36" y="42" width="6" height="6"/></g><g fill="#FFFFFF"><rect x="6" y="6" width="6" height="6"/><rect x="18" y="6" width="6" height="6"/><rect x="30" y="6" width="6" height="6"/></g><g fill="#0F172A"><rect x="12" y="6" width="6" height="6"/><rect x="24" y="6" width="6" height="6"/><rect x="18" y="18" width="6" height="6"/></g></g>
    <text x="309.9" y="794.3" fill="#E6EBF2" font-family="system-ui,-apple-system,'Apple SD Gothic Neo','Noto Sans KR',sans-serif" font-size="15" font-weight="700">5번 · 탐구자</text>
    <text x="309.9" y="814.3" fill="#8B95A3" font-family="system-ui,-apple-system,'Apple SD Gothic Neo','Noto Sans KR',sans-serif" font-size="11">호기심 개구리</text>
  </g>
  
  <g>
    <circle cx="297.2" cy="554.0" r="28" fill="#34D399" stroke="#0B0F14" stroke-width="3"/>
    <text x="297.2" y="560.0" text-anchor="middle" fill="#FFFFFF" font-family="system-ui,-apple-system,sans-serif" font-size="20" font-weight="800">6</text>
  </g>
  
  <g>
    <rect x="55.2" y="604.0" width="186" height="72" rx="36" fill="#151B24" stroke="#34D399" stroke-width="1.5"/>
    <g shape-rendering="crispEdges" transform="translate(68.2,616.0)"><g fill="#B45309"><rect x="0" y="0" width="6" height="6"/><rect x="6" y="0" width="6" height="6"/><rect x="24" y="0" width="6" height="6"/><rect x="30" y="0" width="6" height="6"/><rect x="36" y="0" width="6" height="6"/><rect x="0" y="6" width="6" height="6"/><rect x="6" y="6" width="6" height="6"/><rect x="12" y="6" width="6" height="6"/><rect x="18" y="6" width="6" height="6"/><rect x="24" y="6" width="6" height="6"/><rect x="30" y="6" width="6" height="6"/><rect x="36" y="6" width="6" height="6"/><rect x="0" y="12" width="6" height="6"/><rect x="12" y="12" width="6" height="6"/><rect x="18" y="12" width="6" height="6"/><rect x="24" y="12" width="6" height="6"/><rect x="36" y="12" width="6" height="6"/><rect x="0" y="18" width="6" height="6"/><rect x="6" y="18" width="6" height="6"/><rect x="12" y="18" width="6" height="6"/><rect x="24" y="18" width="6" height="6"/><rect x="30" y="18" width="6" height="6"/><rect x="36" y="18" width="6" height="6"/><rect x="0" y="24" width="6" height="6"/><rect x="6" y="24" width="6" height="6"/><rect x="30" y="24" width="6" height="6"/><rect x="36" y="24" width="6" height="6"/><rect x="0" y="30" width="6" height="6"/><rect x="6" y="30" width="6" height="6"/><rect x="12" y="30" width="6" height="6"/><rect x="18" y="30" width="6" height="6"/><rect x="24" y="30" width="6" height="6"/><rect x="30" y="30" width="6" height="6"/><rect x="36" y="30" width="6" height="6"/><rect x="6" y="36" width="6" height="6"/><rect x="12" y="36" width="6" height="6"/><rect x="18" y="36" width="6" height="6"/><rect x="24" y="36" width="6" height="6"/><rect x="30" y="36" width="6" height="6"/><rect x="6" y="42" width="6" height="6"/><rect x="30" y="42" width="6" height="6"/></g><g fill="#111827"><rect x="6" y="12" width="6" height="6"/><rect x="30" y="12" width="6" height="6"/></g><g fill="#1F2937"><rect x="18" y="18" width="6" height="6"/></g><g fill="#FFFFFF"><rect x="12" y="24" width="6" height="6"/><rect x="18" y="24" width="6" height="6"/><rect x="24" y="24" width="6" height="6"/></g></g>
    <text x="121.2" y="636.0" fill="#E6EBF2" font-family="system-ui,-apple-system,'Apple SD Gothic Neo','Noto Sans KR',sans-serif" font-size="15" font-weight="700">6번 · 충성가</text>
    <text x="121.2" y="656.0" fill="#8B95A3" font-family="system-ui,-apple-system,'Apple SD Gothic Neo','Noto Sans KR',sans-serif" font-size="11">든든한 강아지</text>
  </g>
  
  <g>
    <circle cx="274.9" cy="427.4" r="28" fill="#22D3EE" stroke="#0B0F14" stroke-width="3"/>
    <text x="274.9" y="433.4" text-anchor="middle" fill="#FFFFFF" font-family="system-ui,-apple-system,sans-serif" font-size="20" font-weight="800">7</text>
  </g>
  
  <g>
    <rect x="12.5" y="361.5" width="186" height="72" rx="36" fill="#151B24" stroke="#22D3EE" stroke-width="1.5"/>
    <g shape-rendering="crispEdges" transform="translate(25.5,373.5)"><g fill="#FDE047"><rect x="12" y="0" width="6" height="6"/><rect x="18" y="0" width="6" height="6"/><rect x="24" y="0" width="6" height="6"/><rect x="6" y="6" width="6" height="6"/><rect x="12" y="6" width="6" height="6"/><rect x="18" y="6" width="6" height="6"/><rect x="24" y="6" width="6" height="6"/><rect x="30" y="6" width="6" height="6"/><rect x="0" y="12" width="6" height="6"/><rect x="12" y="12" width="6" height="6"/><rect x="18" y="12" width="6" height="6"/><rect x="24" y="12" width="6" height="6"/><rect x="36" y="12" width="6" height="6"/><rect x="0" y="18" width="6" height="6"/><rect x="6" y="18" width="6" height="6"/><rect x="30" y="18" width="6" height="6"/><rect x="36" y="18" width="6" height="6"/><rect x="0" y="24" width="6" height="6"/><rect x="6" y="24" width="6" height="6"/><rect x="12" y="24" width="6" height="6"/><rect x="18" y="24" width="6" height="6"/><rect x="24" y="24" width="6" height="6"/><rect x="30" y="24" width="6" height="6"/><rect x="36" y="24" width="6" height="6"/><rect x="6" y="30" width="6" height="6"/><rect x="12" y="30" width="6" height="6"/><rect x="18" y="30" width="6" height="6"/><rect x="24" y="30" width="6" height="6"/><rect x="30" y="30" width="6" height="6"/></g><g fill="#111827"><rect x="6" y="12" width="6" height="6"/><rect x="30" y="12" width="6" height="6"/></g><g fill="#FB923C"><rect x="12" y="18" width="6" height="6"/><rect x="18" y="18" width="6" height="6"/><rect x="24" y="18" width="6" height="6"/><rect x="12" y="36" width="6" height="6"/><rect x="24" y="36" width="6" height="6"/></g></g>
    <text x="78.5" y="393.5" fill="#E6EBF2" font-family="system-ui,-apple-system,'Apple SD Gothic Neo','Noto Sans KR',sans-serif" font-size="15" font-weight="700">7번 · 열정가</text>
    <text x="78.5" y="413.5" fill="#8B95A3" font-family="system-ui,-apple-system,'Apple SD Gothic Neo','Noto Sans KR',sans-serif" font-size="11">발랄한 병아리</text>
  </g>
  
  <g>
    <circle cx="339.2" cy="316.0" r="28" fill="#F87171" stroke="#0B0F14" stroke-width="3"/>
    <text x="339.2" y="322.0" text-anchor="middle" fill="#FFFFFF" font-family="system-ui,-apple-system,sans-serif" font-size="20" font-weight="800">8</text>
  </g>
  
  <g>
    <rect x="135.6" y="148.2" width="186" height="72" rx="36" fill="#151B24" stroke="#F87171" stroke-width="1.5"/>
    <g shape-rendering="crispEdges" transform="translate(148.6,160.2)"><g fill="#7C2D12"><rect x="0" y="0" width="6" height="6"/><rect x="36" y="0" width="6" height="6"/><rect x="0" y="6" width="6" height="6"/><rect x="6" y="6" width="6" height="6"/><rect x="12" y="6" width="6" height="6"/><rect x="24" y="6" width="6" height="6"/><rect x="30" y="6" width="6" height="6"/><rect x="36" y="6" width="6" height="6"/><rect x="0" y="12" width="6" height="6"/><rect x="6" y="12" width="6" height="6"/><rect x="12" y="12" width="6" height="6"/><rect x="18" y="12" width="6" height="6"/><rect x="24" y="12" width="6" height="6"/><rect x="30" y="12" width="6" height="6"/><rect x="36" y="12" width="6" height="6"/><rect x="0" y="18" width="6" height="6"/><rect x="12" y="18" width="6" height="6"/><rect x="18" y="18" width="6" height="6"/><rect x="24" y="18" width="6" height="6"/><rect x="36" y="18" width="6" height="6"/><rect x="0" y="24" width="6" height="6"/><rect x="6" y="24" width="6" height="6"/><rect x="12" y="24" width="6" height="6"/><rect x="24" y="24" width="6" height="6"/><rect x="30" y="24" width="6" height="6"/><rect x="36" y="24" width="6" height="6"/><rect x="0" y="30" width="6" height="6"/><rect x="6" y="30" width="6" height="6"/><rect x="30" y="30" width="6" height="6"/><rect x="36" y="30" width="6" height="6"/><rect x="6" y="36" width="6" height="6"/><rect x="12" y="36" width="6" height="6"/><rect x="18" y="36" width="6" height="6"/><rect x="24" y="36" width="6" height="6"/><rect x="30" y="36" width="6" height="6"/><rect x="0" y="42" width="6" height="6"/><rect x="12" y="42" width="6" height="6"/><rect x="24" y="42" width="6" height="6"/><rect x="36" y="42" width="6" height="6"/></g><g fill="#111827"><rect x="6" y="18" width="6" height="6"/><rect x="30" y="18" width="6" height="6"/></g><g fill="#0F172A"><rect x="18" y="24" width="6" height="6"/></g><g fill="#F5F5DC"><rect x="12" y="30" width="6" height="6"/><rect x="18" y="30" width="6" height="6"/><rect x="24" y="30" width="6" height="6"/></g></g>
    <text x="201.6" y="180.2" fill="#E6EBF2" font-family="system-ui,-apple-system,'Apple SD Gothic Neo','Noto Sans KR',sans-serif" font-size="15" font-weight="700">8번 · 도전자</text>
    <text x="201.6" y="200.2" fill="#8B95A3" font-family="system-ui,-apple-system,'Apple SD Gothic Neo','Noto Sans KR',sans-serif" font-size="11">용맹한 곰</text>
  </g>
  
  <g>
    <circle cx="460.0" cy="272.0" r="28" fill="#94A3B8" stroke="#0B0F14" stroke-width="3"/>
    <text x="460.0" y="278.0" text-anchor="middle" fill="#FFFFFF" font-family="system-ui,-apple-system,sans-serif" font-size="20" font-weight="800">9</text>
  </g>
  
  <g>
    <rect x="367.0" y="64.0" width="186" height="72" rx="36" fill="#151B24" stroke="#94A3B8" stroke-width="1.5"/>
    <g shape-rendering="crispEdges" transform="translate(380.0,76.0)"><g fill="#111827"><rect x="0" y="0" width="6" height="6"/><rect x="36" y="0" width="6" height="6"/><rect x="0" y="6" width="6" height="6"/><rect x="6" y="6" width="6" height="6"/><rect x="30" y="6" width="6" height="6"/><rect x="36" y="6" width="6" height="6"/><rect x="6" y="18" width="6" height="6"/><rect x="30" y="18" width="6" height="6"/><rect x="6" y="24" width="6" height="6"/><rect x="30" y="24" width="6" height="6"/><rect x="0" y="42" width="6" height="6"/><rect x="36" y="42" width="6" height="6"/></g><g fill="#F9FAFB"><rect x="12" y="6" width="6" height="6"/><rect x="24" y="6" width="6" height="6"/><rect x="0" y="12" width="6" height="6"/><rect x="6" y="12" width="6" height="6"/><rect x="12" y="12" width="6" height="6"/><rect x="18" y="12" width="6" height="6"/><rect x="24" y="12" width="6" height="6"/><rect x="30" y="12" width="6" height="6"/><rect x="36" y="12" width="6" height="6"/><rect x="0" y="18" width="6" height="6"/><rect x="12" y="18" width="6" height="6"/><rect x="18" y="18" width="6" height="6"/><rect x="24" y="18" width="6" height="6"/><rect x="36" y="18" width="6" height="6"/><rect x="0" y="24" width="6" height="6"/><rect x="12" y="24" width="6" height="6"/><rect x="18" y="24" width="6" height="6"/><rect x="24" y="24" width="6" height="6"/><rect x="36" y="24" width="6" height="6"/><rect x="0" y="30" width="6" height="6"/><rect x="6" y="30" width="6" height="6"/><rect x="12" y="30" width="6" height="6"/><rect x="24" y="30" width="6" height="6"/><rect x="30" y="30" width="6" height="6"/><rect x="36" y="30" width="6" height="6"/><rect x="6" y="36" width="6" height="6"/><rect x="12" y="36" width="6" height="6"/><rect x="18" y="36" width="6" height="6"/><rect x="24" y="36" width="6" height="6"/><rect x="30" y="36" width="6" height="6"/></g><g fill="#4B5563"><rect x="18" y="30" width="6" height="6"/></g></g>
    <text x="433.0" y="96.0" fill="#E6EBF2" font-family="system-ui,-apple-system,'Apple SD Gothic Neo','Noto Sans KR',sans-serif" font-size="15" font-weight="700">9번 · 평화주의자</text>
    <text x="433.0" y="116.0" fill="#8B95A3" font-family="system-ui,-apple-system,'Apple SD Gothic Neo','Noto Sans KR',sans-serif" font-size="11">느긋한 판다</text>
  </g>
</svg>
